<svg id="svg" version="1.1" xmlns="http://www.w3.org/2000/svg" xmlns:xlink="http://www.w3.org/1999/xlink" width="400" height="400" viewBox="105.48599243164062 72.62496185302734 188.72802734375 246.57565307617188"><g id="svgg"><path id="path0" d="M141.602 73.566 C 138.278 75.174,136.345 78.008,135.762 82.129 C 135.503 83.955,135.476 83.985,134.058 84.003 C 118.690 84.205,109.980 89.932,106.419 102.176 C 105.626 104.900,105.090 289.937,105.859 295.607 C 107.415 307.096,115.216 315.507,127.133 318.547 C 130.146 319.315,267.842 319.458,272.211 318.697 C 282.841 316.846,291.867 308.038,293.744 297.687 C 294.386 294.149,294.363 140.530,293.720 137.500 C 292.514 131.810,290.481 128.834,282.383 120.898 C 278.874 117.461,269.582 108.312,261.732 100.568 C 250.582 89.568,246.996 86.257,245.333 85.432 L 243.206 84.375 232.150 84.375 L 221.094 84.375 221.094 82.687 C 221.094 70.089,203.782 69.402,202.124 81.934 L 201.852 83.984 194.895 83.984 L 187.938 83.984 187.696 82.129 C 186.026 69.382,168.750 69.837,168.750 82.628 L 168.750 83.864 164.001 84.120 C 161.389 84.260,158.352 84.375,157.252 84.375 L 155.251 84.375 154.817 81.620 C 153.703 74.543,147.454 70.735,141.602 73.566 M147.107 83.791 L 148.086 84.769 147.969 94.297 C 147.861 103.025,147.789 103.895,147.107 104.647 C 146.048 105.816,144.132 105.731,142.939 104.461 L 141.992 103.453 141.992 94.075 L 141.992 84.698 143.088 83.755 C 144.494 82.546,145.875 82.558,147.107 83.791 M179.475 83.055 C 181.020 83.648,181.250 85.127,181.250 94.459 C 181.250 104.541,181.015 105.469,178.462 105.469 C 175.344 105.469,175.000 104.339,175.000 94.108 C 175.000 83.546,175.774 81.635,179.475 83.055 M212.875 83.195 C 214.710 84.177,215.363 102.253,213.644 104.440 C 212.330 106.110,209.776 105.816,208.775 103.878 C 207.938 102.261,207.944 86.010,208.781 84.391 C 209.583 82.839,211.283 82.343,212.875 83.195 M134.929 95.940 C 135.451 96.141,135.547 97.014,135.547 101.585 C 135.547 111.713,138.207 116.240,144.364 116.588 C 151.931 117.016,154.678 113.251,154.684 102.441 L 154.688 95.703 161.719 95.703 L 168.750 95.703 168.750 101.687 C 168.750 113.474,173.138 118.584,181.202 116.189 C 186.390 114.648,187.626 112.197,187.888 102.930 L 188.086 95.898 194.975 95.792 L 201.864 95.685 202.033 102.433 C 202.288 112.639,204.883 116.551,211.364 116.497 C 218.520 116.438,220.839 113.159,221.026 102.832 L 221.156 95.703 228.102 95.703 L 235.047 95.703 235.294 97.754 C 235.429 98.882,235.542 103.860,235.543 108.816 C 235.548 121.094,236.670 124.231,242.665 128.727 C 247.574 132.408,248.244 132.542,263.086 132.791 C 278.482 133.050,278.636 133.096,280.938 138.091 L 281.836 140.039 281.836 207.031 L 281.836 274.023 280.570 278.853 C 278.559 286.521,275.519 290.729,270.043 293.425 L 267.399 294.727 200.811 294.830 C 128.018 294.943,132.261 295.064,128.325 292.754 C 124.986 290.794,121.315 285.928,120.324 282.147 C 120.053 281.116,119.369 278.955,118.803 277.344 L 117.773 274.414 117.665 192.383 C 117.551 106.961,117.548 107.115,119.273 103.348 C 121.722 97.999,130.038 94.064,134.929 95.940 M260.840 110.560 C 266.265 115.865,270.703 120.317,270.703 120.454 C 270.703 120.591,267.144 120.702,262.793 120.701 C 248.889 120.697,248.343 120.182,248.115 106.859 L 247.968 98.287 249.472 99.601 C 250.300 100.323,255.415 105.255,260.840 110.560 M190.508 137.109 C 139.442 146.407,124.007 210.791,165.232 242.544 C 179.706 253.693,203.274 257.214,219.514 250.654 L 221.743 249.754 226.789 254.582 C 238.686 265.964,241.713 267.566,250.391 267.074 C 267.780 266.086,269.477 242.298,252.249 241.031 L 249.225 240.809 246.110 237.711 L 242.994 234.614 245.056 232.444 C 256.984 219.886,261.768 197.480,256.441 179.120 C 248.153 150.553,218.931 131.933,190.508 137.109 M208.594 162.095 C 230.289 168.275,240.287 195.225,227.862 214.035 L 226.461 216.156 223.404 212.863 C 221.324 210.623,220.341 209.258,220.329 208.594 C 220.297 206.759,218.040 202.736,215.837 200.585 C 205.727 190.715,190.430 196.477,190.430 210.156 C 190.430 216.124,191.055 217.234,198.255 224.056 C 204.767 230.225,204.777 230.275,199.454 229.945 C 177.721 228.595,162.549 207.452,168.096 186.246 C 172.827 168.156,191.267 157.159,208.594 162.095 M122.137 295.369 C 124.864 297.952,128.983 300.149,132.221 300.747 C 135.325 301.321,264.601 301.346,267.621 300.773 C 272.118 299.920,277.473 296.620,280.534 292.814 L 282.138 290.820 281.922 293.303 C 281.356 299.836,276.124 305.464,269.071 307.127 C 265.314 308.013,133.363 307.823,130.119 306.927 C 122.941 304.944,118.117 299.474,117.670 292.810 L 117.484 290.039 118.647 291.602 C 119.286 292.461,120.857 294.156,122.137 295.369 " stroke="none" fill="#ffffff" fill-rule="evenodd"></path></g></svg>